# xmcd CD database file
#
# Track frame offsets:
#	150
#	15070
#	31649
#	46404
#	59727
#	73271
#	89401
#	104952
#	117554
#	130838
#	145779
#	160419
#	180523
#	192294
#	204861
#	217569
#	233051
#	253182
#	265496
#
# Disc length: 3761 seconds
#
# Revision: 1
# Processed by: cddbd v1.4PL0 Copyright (c) Steve Scherf et al.
# Submitted via: Feurio! 1.64 - http://www.feurio.com
#
DISCID=110eaf13
DTITLE=WOLF - Mix 2.4.2002
DYEAR=1900
DGENRE=
TTITLE0=Marilyn Manson - Tainted Love
TTITLE1=Marylin Manson - The Nobodys
TTITLE2=Incubus - Have You Ever
TTITLE3=Sum41 - Fat Lip
TTITLE4=Sum41 - InTooDeep
TTITLE5=Superheist - Step Back
TTITLE6=Superheist - Burnt Out Souls
TTITLE7=Superheist - Uncanny Decadence
TTITLE8=Superheist - Down South
TTITLE9=superheist - Karma
TTITLE10=Superheist - The Fight Back
TTITLE11=Superheist - The Ghost
TTITLE12=The Ataris - Between You And Me
TTITLE13=The Ataris - San Dimas HS Football Rules
TTITLE14=The Ataris - Last Song I'll Ever Write...
TTITLE15=lifehouse - Fairy Tails and Castles
TTITLE16=Lifehouse - Fool
TTITLE17=Less Than Jake - Liquor Store
TTITLE18=Less Than Jake - Look What Happened
EXTD=
EXTT0=
EXTT1=
EXTT2=
EXTT3=
EXTT4=
EXTT5=http://mp3wma.spydar.com
EXTT6=http://mp3wma.spydar.com
EXTT7=http://mp3wma.spydar.com
EXTT8=
EXTT9=
EXTT10=http://mp3wma.spydar.com
EXTT11=
EXTT12=Synthesis Rip by Oipunk
EXTT13=Ripped by Tiklmelmo
EXTT14=Ripped by Tikmelmo
EXTT15=
EXTT16=
EXTT17=
EXTT18=
PLAYORDER=
